<svg width="624" height="523" viewBox="0 0 624 523" fill="none" xmlns="http://www.w3.org/2000/svg">
<g filter="url(#filter0_d_6_537)">
<path fill-rule="evenodd" clip-rule="evenodd" d="M570.527 372.058L590.381 314.834C596.273 297.85 591.804 278.992 578.917 266.458L578.358 265.914C565.403 253.314 559.079 235.385 561.262 217.446L568.708 156.243C572.568 124.52 549.981 95.6751 518.258 91.8153C516.641 91.6186 515.017 91.4902 513.389 91.4305L489.519 90.5553L440.809 44.0588C424.21 28.2145 399.453 24.4919 378.929 34.7541L323.771 62.333C314.839 66.799 304.903 68.8773 294.93 68.3658L250.159 66.0699C226.273 64.8449 205.089 81.2883 200.35 104.732L192.845 141.86C192.352 144.301 192.017 146.771 191.842 149.255L184.804 249.09C184.466 253.875 183.23 258.554 181.161 262.882L161.806 303.35C155.785 315.94 154.517 330.283 158.236 343.734L166.066 372.058H570.527Z" fill="#C4C4DE"/>
<path fill-rule="evenodd" clip-rule="evenodd" d="M166.066 372.058L114.157 428.405C98.7835 445.093 99.8489 471.083 116.536 486.456C123.65 493.009 132.847 496.843 142.508 497.281L527.581 514.765C550.247 515.794 569.456 498.254 570.485 475.588C570.513 474.967 570.527 474.346 570.527 473.725V372.058H166.066Z" fill="#8B8BB5"/>
<mask id="mask0_6_537" style="mask-type:alpha" maskUnits="userSpaceOnUse" x="244" y="0" width="376" height="237">
<path d="M260.093 186.318V0H244.47V194.13C244.47 198.444 247.968 201.941 252.282 201.941H379.708C388.805 201.941 397.73 204.421 405.523 209.113L434.688 226.671C444.914 232.827 456.625 236.08 468.561 236.08H620V220.457H468.561C459.464 220.457 450.539 217.978 442.746 213.286L413.581 195.728C403.355 189.571 391.644 186.318 379.708 186.318H260.093Z" fill="white"/>
</mask>
<g mask="url(#mask0_6_537)">
<path d="M260.093 186.318V0H244.47V194.13C244.47 198.444 247.968 201.941 252.282 201.941H379.708C388.805 201.941 397.73 204.421 405.523 209.113L434.688 226.671C444.914 232.827 456.625 236.08 468.561 236.08H620V220.457H468.561C459.464 220.457 450.539 217.978 442.746 213.286L413.581 195.728C403.355 189.571 391.644 186.318 379.708 186.318H260.093Z" fill="#FF8484"/>
<path fill-rule="evenodd" clip-rule="evenodd" d="M551.433 215.828H634.755V244.181H551.433V215.828ZM226.822 181.689H310.145V210.042H226.822V181.689ZM239.841 114.279V43.3972H274.848L268.194 114.279H239.841ZM405.908 175.903L473.029 207.728V236.08C471.102 243.444 463.194 246.53 449.305 245.338C435.416 244.147 414.103 238.553 385.366 228.558L405.908 175.903Z" fill="#DE6262"/>
</g>
<path fill-rule="evenodd" clip-rule="evenodd" d="M341.391 236.659L149.286 52.3659L132.506 289.893L337.63 253.439L341.391 236.659Z" fill="#FFEECD"/>
<mask id="mask1_6_537" style="mask-type:alpha" maskUnits="userSpaceOnUse" x="37" y="42" width="167" height="243">
<path d="M72.7376 281.179C110.496 296.416 162.423 256.065 188.722 191.052C215.02 126.039 205.73 60.9832 167.972 45.7462C130.214 30.5091 78.286 70.8603 51.9878 135.873C25.6897 200.886 34.9797 265.942 72.7376 281.179Z" fill="white"/>
</mask>
<g mask="url(#mask1_6_537)">
<path d="M131.37 289.966C171.93 286.401 199.879 226.873 193.795 157.007C187.712 87.1408 149.9 33.3935 109.34 36.9589C68.7796 40.5243 40.8307 100.052 46.9142 169.918C52.9976 239.784 90.8096 293.532 131.37 289.966Z" fill="#F5CB76"/>
<path d="M199.627 245.628V256.043H137.135V245.628H107.625V234.055H168.381H230.294V245.628H199.627ZM198.469 245.628H168.381H138.292V254.886H198.469V245.628ZM137.135 244.471H168.381V235.213H108.782V244.471H137.135ZM169.538 244.471H199.627H229.137V235.213H169.538V244.471ZM123.248 80.7188H92.5805V89.9769H152.179V80.7188H123.248ZM123.248 79.5615H153.336V91.1341H92.5805H30.0887V79.5615H61.3346V69.1462H123.248V79.5615ZM91.4233 89.9769V80.7188H61.3346H31.2459V89.9769H91.4233ZM122.091 79.5615V70.3035H62.4919V79.5615H91.4233H122.091ZM60.1773 106.757H122.091V118.33H60.1773H-0.578613V106.757H60.1773ZM60.1773 117.172V107.914H0.578643V117.172H60.1773ZM61.3346 117.172H120.933V107.914H61.3346V117.172Z" fill="black"/>
</g>
<path fill-rule="evenodd" clip-rule="evenodd" d="M330.377 260.383C320.374 277.074 320.374 286.748 330.377 289.403C340.38 292.059 348.873 283.903 355.856 264.935L330.377 260.383Z" fill="#353535"/>
<path d="M342.259 464.638C410.167 464.638 465.217 457.903 465.217 449.594C465.217 441.285 410.167 434.55 342.259 434.55C274.35 434.55 219.3 441.285 219.3 449.594C219.3 457.903 274.35 464.638 342.259 464.638Z" fill="#353535"/>
<mask id="mask2_6_537" style="mask-type:alpha" maskUnits="userSpaceOnUse" x="138" y="245" width="396" height="243">
<path d="M490.904 442.526L504.189 451.914C504.282 451.979 504.372 452.049 504.458 452.123C505.986 453.433 506.163 455.733 504.853 457.261C503.283 459.092 500.736 459.747 498.477 458.901C483.445 453.266 474.77 449.199 472.45 446.701L436.864 415.744L391.731 404.461L388.838 463.481C385.17 463.803 382.374 463.995 380.448 464.06C363.089 464.638 349.01 464.851 339.783 464.994C330.528 465.137 319.652 464.994 303.887 464.509C302.419 464.464 299.427 464.14 294.913 463.539L300.977 400.261L263.694 438.113C260.724 441.129 257.432 443.81 253.876 446.107L220.019 467.988C216.139 470.495 211.824 472.254 207.297 473.175L138.292 487.205C137.281 478.98 140.657 471.554 148.418 464.928C155.191 459.144 177.753 455.224 193.84 454.223C195.378 454.127 208.631 443.228 233.6 421.524C234.479 420.759 235.306 419.935 236.073 419.057L278.695 370.257C288.98 358.482 303.669 351.476 319.292 350.893L341.391 350.07L346.331 327.77H334.297C325.349 327.77 318.096 320.516 318.096 311.568C318.096 309.788 318.389 308.02 318.964 306.335L330.959 271.192C336.236 255.731 350.764 245.338 367.101 245.338H375.194C388.93 245.338 400.066 256.474 400.066 270.211C400.066 273.088 399.567 275.943 398.592 278.649L371.479 353.831L444.819 380.674C454.755 384.311 463.504 390.603 470.114 398.865L490.098 423.845C507.457 423.074 516.908 424.038 518.451 426.738C519.732 428.981 524.272 433.95 532.072 441.646C533.62 443.174 533.636 445.667 532.109 447.216C531.578 447.753 530.905 448.127 530.168 448.292C525.69 449.297 520.998 448.204 517.425 445.323L514.111 442.65C502.232 443.298 494.71 443.298 491.545 442.65C491.33 442.607 491.117 442.565 490.904 442.526Z" fill="white"/>
</mask>
<g mask="url(#mask2_6_537)">
<path d="M490.904 442.526L504.189 451.914C504.282 451.979 504.372 452.049 504.458 452.123C505.986 453.433 506.163 455.733 504.853 457.261C503.283 459.092 500.736 459.747 498.477 458.901C483.445 453.266 474.77 449.199 472.45 446.701L436.864 415.744L391.731 404.461L388.838 463.481C385.17 463.803 382.374 463.995 380.448 464.06C363.089 464.638 349.01 464.851 339.783 464.994C330.528 465.137 319.652 464.994 303.887 464.509C302.419 464.464 299.427 464.14 294.913 463.539L300.977 400.261L263.694 438.113C260.724 441.129 257.432 443.81 253.876 446.107L220.019 467.988C216.139 470.495 211.824 472.254 207.297 473.175L138.292 487.205C137.281 478.98 140.657 471.554 148.418 464.928C155.191 459.144 177.753 455.224 193.84 454.223C195.378 454.127 208.631 443.228 233.6 421.524C234.479 420.759 235.306 419.935 236.073 419.057L278.695 370.257C288.98 358.482 303.669 351.476 319.292 350.893L341.391 350.07L346.331 327.77H334.297C325.349 327.77 318.096 320.516 318.096 311.568C318.096 309.788 318.389 308.02 318.964 306.335L330.959 271.192C336.236 255.731 350.764 245.338 367.101 245.338H375.194C388.93 245.338 400.066 256.474 400.066 270.211C400.066 273.088 399.567 275.943 398.592 278.649L371.479 353.831L444.819 380.674C454.755 384.311 463.504 390.603 470.114 398.865L490.098 423.845C507.457 423.074 516.908 424.038 518.451 426.738C519.732 428.981 524.272 433.95 532.072 441.646C533.62 443.174 533.636 445.667 532.109 447.216C531.578 447.753 530.905 448.127 530.168 448.292C525.69 449.297 520.998 448.204 517.425 445.323L514.111 442.65C502.232 443.298 494.71 443.298 491.545 442.65C491.33 442.607 491.117 442.565 490.904 442.526Z" fill="#FFCDCD"/>
<path fill-rule="evenodd" clip-rule="evenodd" d="M328.082 349.202C333.29 358.074 341.969 363.089 354.12 364.246C366.272 365.404 375.144 362.511 380.737 355.567L442.072 367.953L416.323 415.166L403.304 413.43L391.913 464.335L285.295 471.582L301.288 401.047L285.295 431L240.709 381.48C259.971 362.544 277.014 351.11 291.837 347.179C306.661 343.248 318.742 343.922 328.082 349.202Z" fill="#FFF9D6"/>
</g>
<path fill-rule="evenodd" clip-rule="evenodd" d="M391.553 275.071L403.302 277.883C403.405 297.846 398.163 306.52 387.575 303.904C382.281 302.596 379.284 299.375 378.583 294.243C374.134 297.875 369.503 298.869 364.691 297.226C354.93 293.894 354.476 284.12 363.33 267.905L391.731 274.677C391.672 274.809 391.612 274.94 391.553 275.071Z" fill="#353535"/>
<mask id="mask3_6_537" style="mask-type:alpha" maskUnits="userSpaceOnUse" x="325" y="239" width="84" height="42">
<path d="M325.768 259.206L408.511 280.056C405.081 276.823 403.441 274.356 403.592 272.654C405.298 253.355 394.592 247.258 372.615 242.486C350.531 237.692 343.792 237.151 334.377 253.523C333.581 254.908 330.711 256.802 325.768 259.206Z" fill="white"/>
</mask>
<g mask="url(#mask3_6_537)">
<path d="M325.768 259.206L408.511 280.056C405.081 276.823 403.441 274.356 403.592 272.654C405.298 253.355 394.592 247.258 372.615 242.486C350.531 237.692 343.792 237.151 334.377 253.523C333.581 254.908 330.711 256.802 325.768 259.206Z" fill="#3C3CA0"/>
<path fill-rule="evenodd" clip-rule="evenodd" d="M342.548 252.861L405.329 269.641L407.065 262.987L344.862 244.181L342.548 252.861Z" fill="#26266F"/>
</g>
<path d="M339.365 256.332C345.597 256.332 350.649 251.281 350.649 245.049C350.649 238.818 345.597 233.766 339.365 233.766C333.134 233.766 328.082 238.818 328.082 245.049C328.082 251.281 333.134 256.332 339.365 256.332Z" fill="#F5CB76"/>
<path d="M339.365 253.439C344.319 253.439 348.334 249.683 348.334 245.049C348.334 240.415 344.319 236.659 339.365 236.659C334.412 236.659 330.397 240.415 330.397 245.049C330.397 249.683 334.412 253.439 339.365 253.439Z" fill="#FFEECD"/>
<path d="M335.796 274.198C334.57 271.301 332.794 269.93 330.397 269.93V268.194C333.39 268.194 335.665 269.838 337.158 272.993C342.964 269.533 347.84 270.796 351.393 276.716C351.639 277.127 351.506 277.661 351.095 277.907C350.684 278.154 350.151 278.021 349.904 277.61C346.723 272.308 342.705 271.424 337.407 274.884L325.404 295.191L332.441 296.563C332.912 296.655 333.219 297.11 333.127 297.581C333.035 298.051 332.579 298.359 332.109 298.267L323.866 296.66C323.277 296.545 322.979 295.883 323.284 295.367L335.796 274.198ZM342.548 282.371C341.269 282.371 340.233 281.334 340.233 280.056C340.233 278.778 341.269 277.742 342.548 277.742C343.826 277.742 344.862 278.778 344.862 280.056C344.862 281.334 343.826 282.371 342.548 282.371ZM330.397 278.899C329.118 278.899 328.082 277.863 328.082 276.584C328.082 275.306 329.118 274.27 330.397 274.27C331.675 274.27 332.711 275.306 332.711 276.584C332.711 277.863 331.675 278.899 330.397 278.899ZM326.717 308.216C324.083 307.497 322.43 305.317 323.024 303.346C323.618 301.376 326.235 300.361 328.869 301.08C331.502 301.799 333.156 303.979 332.562 305.949C331.967 307.92 329.351 308.934 326.717 308.216ZM320.035 315.92C320.2 315.471 320.699 315.24 321.149 315.406C321.599 315.572 321.829 316.071 321.664 316.52L319.638 322.017C319.473 322.467 318.974 322.697 318.524 322.532C318.074 322.366 317.844 321.867 318.01 321.417L320.035 315.92ZM323.507 317.078C323.672 316.628 324.171 316.397 324.621 316.563C325.071 316.729 325.301 317.228 325.135 317.678L323.11 323.175C322.944 323.624 322.446 323.855 321.996 323.689C321.546 323.523 321.316 323.024 321.481 322.575L323.507 317.078ZM326.978 318.235C327.144 317.785 327.643 317.555 328.093 317.72C328.543 317.886 328.773 318.385 328.607 318.835L326.582 324.332C326.416 324.782 325.917 325.012 325.467 324.846C325.018 324.681 324.787 324.182 324.953 323.732L326.978 318.235Z" fill="#353535"/>
<path fill-rule="evenodd" clip-rule="evenodd" d="M422.977 89.9766V101.549H362.221H299.729V89.9766H311.302V78.4041H372.058H433.971V89.9766H422.977ZM372.058 113.7H433.971V125.273H372.058V113.7ZM231.451 324.321V335.315H168.959V324.321H138.292V312.748H199.048H260.961V324.321H231.451ZM562.427 177.349H593.672V188.922H532.917H470.425V177.349H439.757V165.777H500.513H562.427V177.349ZM516.715 308.409H557.798V319.981H495.884V308.987H454.802V297.415H516.715V308.409Z" fill="#8B8BB5"/>
<path fill-rule="evenodd" clip-rule="evenodd" d="M371.479 194.998H376.687V206.57H371.479V194.998ZM502.249 228.558H507.457V240.131H502.249V228.558Z" fill="#8B8BB5"/>
<path fill-rule="evenodd" clip-rule="evenodd" d="M428.185 454.223H334.447V464.928H325.768V429.053C325.768 426.656 327.711 424.713 330.107 424.713C332.504 424.713 334.447 426.656 334.447 429.053V445.544H428.185V429.053C428.185 426.656 430.128 424.713 432.524 424.713C434.921 424.713 436.864 426.656 436.864 429.053V459.141L428.185 460.299V454.223Z" fill="#FF8484"/>
<path d="M165.561 473.344C161.739 474.491 159.123 478.008 159.123 481.997C159.123 482.477 159.511 482.865 159.991 482.865C160.47 482.865 160.859 482.477 160.859 481.997C160.859 478.774 162.973 475.933 166.059 475.007L174.706 472.413C174.965 472.335 175.174 472.141 175.269 471.887C175.613 470.97 178.018 469.398 182.335 467.455C186.339 465.653 188.581 465.354 191.279 465.699L191.648 465.746C191.792 465.765 191.902 465.778 192.009 465.79C192.485 465.843 192.914 465.5 192.967 465.024C193.02 464.547 192.677 464.118 192.2 464.065C192.106 464.054 192.004 464.042 191.869 464.025C191.827 464.019 191.576 463.987 191.499 463.977C188.492 463.593 185.927 463.935 181.622 465.872C177.262 467.834 174.708 469.424 173.848 470.858L165.561 473.344Z" fill="#353535"/>
<path fill-rule="evenodd" clip-rule="evenodd" d="M374.372 302.425C386.106 305.473 392.931 303.197 394.847 295.598C396.3 289.835 393.258 285.081 386.585 286.693C385.168 287.035 382.447 289.645 378.423 294.522L374.372 302.425Z" fill="#FFCDCD"/>
<path d="M500.345 433.673L509.166 432.435C513.803 431.785 518.498 433.136 522.08 436.152L532.647 445.05C533.013 445.359 533.561 445.312 533.87 444.946C534.178 444.579 534.132 444.031 533.765 443.723L523.198 434.824C519.239 431.491 514.05 429.997 508.924 430.716L500.103 431.954C499.629 432.021 499.298 432.46 499.364 432.935C499.431 433.409 499.87 433.74 500.345 433.673Z" fill="#353535"/>
<path d="M361.643 90.5552H311.302V89.398H372.637V78.4041H373.794V89.398H422.977V90.5552H362.8V101.549H361.643V90.5552ZM532.338 177.928H470.714C470.394 177.928 470.135 177.669 470.135 177.349C470.135 177.03 470.394 176.771 470.714 176.771H501.092V165.777H502.249V176.771H562.427C562.746 176.771 563.005 177.03 563.005 177.349C563.005 177.669 562.746 177.928 562.427 177.928H533.495V188.922H532.338V177.928ZM495.884 309.277C495.565 309.277 495.306 309.018 495.306 308.698C495.306 308.378 495.565 308.119 495.884 308.119H516.715C517.034 308.119 517.294 308.378 517.294 308.698C517.294 309.018 517.034 309.277 516.715 309.277H495.884ZM199.048 323.742V312.748H200.205V323.742H231.451V324.9H169.538V323.742H199.048Z" fill="#353535"/>
</g>
<defs>
<filter id="filter0_d_6_537" x="33.0322" y="0" width="590.968" height="522.808" filterUnits="userSpaceOnUse" color-interpolation-filters="sRGB">
<feFlood flood-opacity="0" result="BackgroundImageFix"/>
<feColorMatrix in="SourceAlpha" type="matrix" values="0 0 0 0 0 0 0 0 0 0 0 0 0 0 0 0 0 0 127 0" result="hardAlpha"/>
<feOffset dy="4"/>
<feGaussianBlur stdDeviation="2"/>
<feComposite in2="hardAlpha" operator="out"/>
<feColorMatrix type="matrix" values="0 0 0 0 0 0 0 0 0 0 0 0 0 0 0 0 0 0 0.25 0"/>
<feBlend mode="normal" in2="BackgroundImageFix" result="effect1_dropShadow_6_537"/>
<feBlend mode="normal" in="SourceGraphic" in2="effect1_dropShadow_6_537" result="shape"/>
</filter>
</defs>
</svg>
